<?xml version="1.0" standalone="no"?>
<!DOCTYPE svg PUBLIC "-//W3C//DTD SVG 20010904//EN"
 "http://www.w3.org/TR/2001/REC-SVG-20010904/DTD/svg10.dtd">
<svg version="1.0" xmlns="http://www.w3.org/2000/svg"
 width="600.000000pt" height="400.000000pt" viewBox="0 0 600.000000 400.000000"
 preserveAspectRatio="xMidYMid meet">

<g transform="translate(0.000000,400.000000) scale(0.100000,-0.100000)"
fill="#000000" stroke="none">
<path d="M2903 3086 c-78 -19 -158 -62 -216 -116 -28 -26 -49 -51 -46 -54 3
-3 21 -1 40 4 19 6 72 10 119 9 59 -1 101 4 138 16 38 13 66 16 100 10 26 -4
53 -7 60 -8 23 -1 31 -40 19 -92 -16 -67 -112 -162 -222 -217 -93 -47 -165
-95 -165 -109 0 -6 -6 -17 -14 -24 -19 -19 -29 -101 -21 -159 9 -59 41 -85 81
-67 14 6 33 11 42 11 25 0 143 58 158 78 7 9 17 44 23 76 6 33 14 63 18 66 5
4 42 34 84 68 92 74 170 157 194 209 54 113 11 245 -95 291 -47 20 -229 25
-297 8z"/>
<path d="M2179 2976 c-73 -26 -128 -85 -125 -134 2 -32 30 -72 51 -72 6 0 26
-11 45 -25 19 -14 44 -25 57 -25 13 0 46 11 73 25 27 14 63 25 81 25 18 0 43
10 60 24 16 14 56 37 88 53 33 15 60 31 60 34 2 13 -106 52 -179 65 -41 7 -92
20 -112 28 -44 19 -52 19 -99 2z"/>
<path d="M3718 2974 c-15 -8 -63 -21 -106 -28 -80 -14 -172 -48 -172 -63 0 -4
30 -24 66 -43 36 -19 72 -42 81 -52 9 -11 30 -18 50 -18 18 0 56 -11 83 -25
78 -40 118 -31 201 47 43 39 39 76 -12 121 -22 21 -45 35 -49 32 -5 -3 -12 0
-16 6 -4 8 -3 9 4 5 7 -4 12 -5 12 -1 0 12 -45 22 -58 12 -9 -7 -11 -6 -6 7 5
12 0 16 -22 16 -16 -1 -41 -7 -56 -16z"/>
<path d="M2745 2874 c-87 -21 -118 -31 -173 -55 -138 -62 -238 -157 -268 -256
-18 -59 -18 -118 1 -218 8 -44 17 -97 20 -118 12 -74 93 -137 177 -137 29 0
60 33 51 56 -3 8 0 14 6 14 7 0 11 22 11 59 0 95 -8 117 -56 153 -70 54 -81
102 -40 172 28 48 60 77 127 117 79 46 149 62 257 57 l94 -4 44 54 c24 30 42
58 39 62 -18 29 -224 60 -290 44z"/>
<path d="M3380 2786 c0 -8 -13 -39 -29 -70 l-30 -56 42 -10 c146 -37 220 -113
202 -208 -10 -54 -41 -109 -74 -128 -50 -29 -64 -66 -57 -147 7 -77 24 -107
62 -107 28 0 94 30 94 42 0 5 4 7 8 4 5 -3 21 7 36 23 20 21 29 44 36 87 5 33
16 79 25 104 9 25 19 84 22 132 6 84 4 91 -26 152 -38 78 -82 116 -189 162
-82 36 -122 43 -122 20z"/>
<path d="M2145 2658 c-170 -23 -272 -98 -296 -221 -13 -65 6 -153 47 -219 l27
-42 31 39 c17 22 46 54 64 70 30 28 32 34 23 59 -31 80 8 130 109 142 l60 7 0
41 c0 22 9 60 20 84 10 23 18 43 17 43 -8 5 -51 4 -102 -3z"/>
<path d="M3773 2662 c-22 -3 -22 -4 -7 -34 9 -17 18 -54 21 -84 5 -50 8 -54
32 -54 43 0 105 -21 129 -43 24 -23 30 -74 11 -109 -10 -18 -6 -25 22 -52 19
-17 48 -48 66 -70 l31 -38 26 41 c54 85 66 191 31 276 -20 46 -94 109 -157
133 -58 22 -167 40 -205 34z"/>
<path d="M2608 2575 c-80 -30 -117 -76 -103 -132 9 -36 32 -52 76 -53 55 0 72
19 85 96 7 38 15 77 19 87 9 21 -22 22 -77 2z"/>
<path d="M3239 2567 c-72 -30 -125 -63 -143 -89 -27 -38 16 -118 64 -118 10 0
65 15 122 34 57 19 131 40 166 47 49 9 62 15 62 30 0 22 -57 89 -75 89 -7 0
-15 5 -17 12 -2 6 -30 13 -64 15 -45 3 -72 -2 -115 -20z"/>
<path d="M2151 2339 c-126 -84 -192 -191 -199 -324 -9 -166 64 -298 221 -402
40 -26 91 -67 114 -91 l42 -45 60 6 c122 11 171 59 137 134 -20 44 -55 86 -84
102 -11 6 -47 11 -80 11 -47 0 -67 5 -98 26 -121 81 -179 190 -153 288 13 50
66 122 113 156 29 21 35 31 36 61 0 37 -22 103 -39 113 -5 3 -36 -12 -70 -35z"/>
<path d="M3755 2328 c-23 -78 -20 -99 21 -128 49 -35 101 -108 114 -161 20
-81 -18 -171 -102 -243 -64 -55 -95 -69 -140 -62 -42 7 -114 -17 -103 -34 3
-5 -1 -10 -9 -10 -21 0 -76 -77 -76 -107 0 -58 41 -86 140 -97 45 -6 61 -3 88
13 17 12 32 26 32 34 0 7 33 32 73 57 97 59 177 142 218 227 32 64 34 74 34
173 0 94 -3 111 -28 161 -15 31 -45 77 -67 102 -38 42 -151 127 -171 127 -4 0
-15 -23 -24 -52z"/>
<path d="M2803 2180 c-130 -34 -207 -90 -205 -151 1 -42 25 -65 86 -83 71 -21
111 -48 140 -95 14 -22 29 -42 34 -45 15 -9 23 -70 14 -96 l-8 -22 -30 25
c-37 32 -112 52 -158 43 -93 -18 -101 -87 -18 -153 71 -56 99 -87 123 -135
l22 -43 -46 38 c-49 40 -92 48 -101 19 -7 -20 17 -120 39 -161 8 -16 37 -45
64 -64 27 -20 65 -57 83 -83 70 -99 114 -124 192 -110 37 7 67 34 127 114 22
28 57 64 79 78 22 15 49 41 60 58 25 42 54 150 40 154 -6 2 -8 8 -5 13 3 4 -5
11 -19 15 -18 4 -34 -1 -59 -20 -44 -34 -51 -33 -32 5 19 36 53 72 111 117 23
17 47 45 54 61 10 26 9 34 -9 60 -39 54 -158 49 -219 -10 l-30 -29 -5 32 c-8
52 12 103 62 156 31 34 62 55 96 66 76 26 99 39 112 65 21 44 -18 105 -90 143
-115 59 -355 77 -504 38z"/>
<path d="M3707 2084 c-30 -28 -45 -34 -80 -34 -60 0 -112 -38 -143 -103 -13
-29 -24 -67 -24 -85 0 -28 5 -35 35 -48 45 -19 158 -18 195 1 16 8 32 25 36
37 4 13 31 46 62 74 54 51 55 51 43 87 -14 40 -44 83 -69 96 -13 7 -26 1 -55
-25z"/>
<path d="M2213 2088 c-12 -13 -29 -43 -39 -67 l-17 -44 55 -51 c30 -28 58 -61
62 -74 4 -12 20 -29 36 -37 37 -19 150 -20 195 -1 30 13 35 20 35 48 0 39 -39
127 -66 148 -37 30 -64 40 -104 40 -29 0 -48 7 -73 30 -41 36 -57 37 -84 8z"/>
<path d="M1817 2009 c-91 -60 -137 -155 -137 -278 1 -108 42 -190 125 -250 24
-17 45 -31 48 -31 3 0 15 32 27 71 12 40 29 83 37 96 9 13 14 25 12 26 -2 1
-13 7 -24 13 -11 6 -29 26 -39 45 -23 42 -17 74 21 119 l26 32 -16 46 c-10 26
-17 68 -17 95 0 26 -4 47 -8 47 -5 0 -29 -14 -55 -31z"/>
<path d="M4120 1987 c0 -30 -3 -57 -7 -61 -5 -4 -8 -11 -8 -14 -1 -4 -4 -20
-8 -35 -6 -22 -2 -35 18 -58 36 -44 42 -76 19 -118 -10 -20 -29 -40 -41 -46
-20 -10 -20 -13 -8 -41 30 -64 45 -108 45 -130 0 -37 17 -38 65 -3 85 61 124
141 125 256 0 120 -49 217 -139 275 -25 15 -49 28 -53 28 -4 0 -8 -24 -8 -53z"/>
<path d="M1977 1597 c-65 -133 -74 -294 -24 -412 13 -33 39 -94 56 -135 18
-41 40 -83 49 -94 33 -37 92 -56 179 -56 115 0 130 19 99 124 -8 27 -23 57
-33 69 -10 11 -12 17 -5 13 11 -7 12 -4 3 13 -15 28 -46 47 -98 60 -53 14 -88
56 -102 120 -12 55 -2 135 23 196 21 49 20 50 -9 63 -14 6 -45 30 -68 52 l-44
40 -26 -53z"/>
<path d="M3946 1601 c-16 -16 -41 -35 -57 -41 -34 -14 -34 -16 -13 -65 44
-107 36 -225 -21 -282 -18 -18 -42 -33 -54 -33 -12 0 -21 -4 -21 -10 0 -5 -6
-10 -14 -10 -25 0 -86 -82 -102 -135 -29 -102 -11 -125 100 -125 125 1 188 38
217 128 6 20 26 67 44 104 64 129 71 267 22 407 -29 83 -25 76 -53 85 -14 4
-28 -2 -48 -23z"/>
<path d="M2174 1436 c-3 -9 -4 -34 -2 -55 2 -22 0 -37 -5 -34 -5 3 -7 -5 -5
-18 2 -18 15 -28 63 -44 88 -30 151 -64 195 -105 33 -31 39 -42 45 -95 4 -33
13 -70 21 -82 16 -25 110 -77 124 -68 4 3 10 -1 13 -7 3 -10 7 -10 17 -1 7 6
18 9 24 7 28 -11 48 34 51 108 2 92 -8 122 -54 156 -20 14 -61 52 -92 83 -87
87 -204 143 -342 163 -38 6 -48 4 -53 -8z"/>
<path d="M3741 1439 c-130 -25 -224 -74 -315 -162 -34 -34 -77 -73 -95 -87
-23 -18 -35 -38 -42 -70 -14 -61 -2 -157 22 -181 20 -20 69 -26 69 -8 0 5 4 8
10 4 14 -9 108 42 124 68 8 12 17 49 21 82 6 52 12 65 44 95 42 40 146 93 216
111 l46 12 -7 66 c-3 36 -8 69 -11 74 -5 8 -23 8 -82 -4z"/>
</g>
</svg>
